<svg width="642" height="572" viewBox="0 0 642 572" fill="none" xmlns="http://www.w3.org/2000/svg">
<g clip-path="url(#clip0_27_3)">
<path d="M461.941 513.482H147.009C136.329 513.47 126.09 509.22 118.538 501.664C110.987 494.108 106.739 483.863 106.727 473.178V103.115C106.739 92.4295 110.987 82.185 118.538 74.6292C126.09 67.0734 136.329 62.8232 147.009 62.8111H440.002L502.223 112.432V473.178C502.211 483.863 497.963 494.108 490.411 501.664C482.86 509.22 472.621 513.47 461.941 513.482Z" fill="#E6E6E6"/>
<path d="M147.009 74.4138C139.403 74.4223 132.112 77.449 126.734 82.8296C121.357 88.2103 118.332 95.5056 118.323 103.115V473.178C118.332 480.787 121.357 488.083 126.734 493.463C132.112 498.844 139.403 501.871 147.009 501.879H461.941C469.546 501.871 476.837 498.844 482.215 493.463C487.593 488.083 490.618 480.787 490.626 473.178V118.022L435.945 74.4138H147.009Z" fill="white"/>
<path d="M396.231 182.018H185.048C184.166 182.019 183.293 181.846 182.478 181.509C181.664 181.173 180.923 180.678 180.3 180.055C179.676 179.432 179.181 178.691 178.844 177.877C178.506 177.062 178.332 176.188 178.332 175.306C178.332 174.424 178.506 173.551 178.844 172.736C179.181 171.921 179.676 171.181 180.3 170.558C180.923 169.935 181.664 169.44 182.478 169.104C183.293 168.767 184.166 168.594 185.048 168.595H396.231C398.01 168.595 399.716 169.302 400.974 170.561C402.232 171.819 402.939 173.526 402.939 175.306C402.939 177.087 402.232 178.794 400.974 180.052C399.716 181.311 398.01 182.018 396.231 182.018Z" fill="#CCCCCC"/>
<path d="M423.902 204.67H185.048C184.167 204.67 183.295 204.496 182.481 204.159C181.667 203.822 180.927 203.327 180.304 202.704C179.682 202.081 179.187 201.341 178.85 200.527C178.513 199.712 178.34 198.84 178.34 197.958C178.34 197.077 178.513 196.204 178.85 195.39C179.187 194.576 179.682 193.836 180.304 193.212C180.927 192.589 181.667 192.095 182.481 191.758C183.295 191.42 184.167 191.247 185.048 191.247H423.902C424.783 191.247 425.655 191.42 426.469 191.758C427.283 192.095 428.022 192.589 428.645 193.212C429.268 193.836 429.762 194.576 430.099 195.39C430.436 196.204 430.61 197.077 430.61 197.958C430.61 198.84 430.436 199.712 430.099 200.527C429.762 201.341 429.268 202.081 428.645 202.704C428.022 203.327 427.283 203.822 426.469 204.159C425.655 204.496 424.783 204.67 423.902 204.67Z" fill="#CCCCCC"/>
<path d="M396.231 283.532H185.048C184.166 283.533 183.293 283.36 182.478 283.023C181.664 282.687 180.923 282.192 180.3 281.569C179.676 280.946 179.181 280.205 178.844 279.391C178.506 278.576 178.332 277.703 178.332 276.821C178.332 275.939 178.506 275.065 178.844 274.25C179.181 273.436 179.676 272.695 180.3 272.072C180.923 271.449 181.664 270.954 182.478 270.618C183.293 270.281 184.166 270.108 185.048 270.109H396.231C398.01 270.109 399.716 270.816 400.974 272.075C402.232 273.333 402.939 275.04 402.939 276.821C402.939 278.601 402.232 280.308 400.974 281.566C399.716 282.825 398.01 283.532 396.231 283.532Z" fill="#00B0FF"/>
<path d="M423.902 306.184H185.048C184.167 306.184 183.295 306.01 182.481 305.673C181.667 305.336 180.927 304.842 180.304 304.218C179.682 303.595 179.187 302.855 178.85 302.041C178.513 301.227 178.34 300.354 178.34 299.472C178.34 298.591 178.513 297.718 178.85 296.904C179.187 296.09 179.682 295.35 180.304 294.727C180.927 294.103 181.667 293.609 182.481 293.272C183.295 292.934 184.167 292.761 185.048 292.761H423.902C424.783 292.761 425.655 292.934 426.469 293.272C427.283 293.609 428.022 294.103 428.645 294.727C429.268 295.35 429.762 296.09 430.099 296.904C430.436 297.718 430.61 298.591 430.61 299.472C430.61 300.354 430.436 301.227 430.099 302.041C429.762 302.855 429.268 303.595 428.645 304.218C428.022 304.842 427.283 305.336 426.469 305.673C425.655 306.01 424.783 306.184 423.902 306.184Z" fill="#CCCCCC"/>
<path d="M396.231 385.046H185.048C183.269 385.046 181.562 384.339 180.304 383.08C179.046 381.822 178.34 380.115 178.34 378.335C178.34 376.555 179.046 374.847 180.304 373.589C181.562 372.33 183.269 371.623 185.048 371.623H396.231C398.01 371.623 399.716 372.33 400.974 373.589C402.232 374.847 402.939 376.555 402.939 378.335C402.939 380.115 402.232 381.822 400.974 383.08C399.716 384.339 398.01 385.046 396.231 385.046Z" fill="#CCCCCC"/>
<path d="M423.902 407.698H185.048C184.166 407.699 183.293 407.526 182.478 407.189C181.664 406.853 180.923 406.358 180.3 405.735C179.676 405.112 179.181 404.371 178.844 403.557C178.506 402.742 178.332 401.868 178.332 400.986C178.332 400.104 178.506 399.231 178.844 398.416C179.181 397.601 179.676 396.861 180.3 396.238C180.923 395.615 181.664 395.12 182.478 394.784C183.293 394.447 184.166 394.274 185.048 394.275H423.902C425.681 394.275 427.387 394.982 428.645 396.241C429.903 397.499 430.61 399.206 430.61 400.986C430.61 402.767 429.903 404.474 428.645 405.732C427.387 406.991 425.681 407.698 423.902 407.698Z" fill="#CCCCCC"/>
<path d="M501.012 114.029H452.272C450.51 114.029 448.765 113.682 447.138 113.008C445.51 112.333 444.031 111.344 442.785 110.098C441.539 108.851 440.551 107.372 439.877 105.743C439.203 104.114 438.856 102.369 438.856 100.606V64.5878C438.856 64.4301 438.9 64.2756 438.984 64.142C439.068 64.0084 439.187 63.9012 439.329 63.8325C439.471 63.7639 439.629 63.7366 439.786 63.7539C439.943 63.7712 440.091 63.8323 440.215 63.9302L501.533 112.533C501.669 112.641 501.768 112.789 501.817 112.956C501.866 113.123 501.861 113.302 501.804 113.466C501.746 113.631 501.639 113.773 501.498 113.874C501.356 113.975 501.186 114.029 501.012 114.029Z" fill="#E6E6E6"/>
<path d="M195.027 94.6354C195.027 112.856 189.627 130.667 179.51 145.816C169.393 160.966 155.013 172.773 138.189 179.746C121.365 186.719 102.852 188.543 84.9919 184.988C67.1314 181.434 50.7256 172.66 37.849 159.776C24.9723 146.893 16.2032 130.478 12.6505 112.608C9.09789 94.7376 10.9212 76.2148 17.89 59.3815C24.8588 42.5482 36.66 28.1606 51.8014 18.038C66.9427 7.91537 84.7441 2.51245 102.954 2.51245C127.371 2.52016 150.786 12.2284 168.051 29.5032C185.317 46.7779 195.02 70.2053 195.027 94.6354Z" fill="white"/>
<path d="M145.509 110.399C144.503 169.316 56.9121 169.307 55.915 110.397C56.9206 51.481 144.512 51.4902 145.509 110.399Z" fill="#00B0FF"/>
<path d="M98.9337 128.686L98.8871 127.011C110.425 128.552 112.91 114.245 101.274 119.594L103.93 100.172L105.589 100.4L103.329 116.92C115.581 115.095 111.049 130.36 98.9337 128.686Z" fill="#2F2E41"/>
<path d="M122.807 101.824H113.791V103.499H122.807V101.824Z" fill="#2F2E41"/>
<path d="M94.348 101.824H85.332V103.499H94.348V101.824Z" fill="#2F2E41"/>
<path d="M115.233 173.066C116.991 161.198 103.105 163.543 95.7559 163.426C94.5709 163.43 93.4017 163.698 92.3334 164.211C91.2652 164.724 90.3247 165.469 89.5806 166.392C88.8365 167.314 88.3074 168.391 88.032 169.544C87.7565 170.698 87.7417 171.898 87.9884 173.057C82.3002 174.816 77.0328 177.724 72.5116 181.6C91.5647 188.247 112.268 188.476 131.464 182.253C126.784 178.048 121.246 174.913 115.233 173.066Z" fill="#2F2E41"/>
<path d="M79.6509 89.1992C87.9529 84.3986 98.0207 88.0815 106.596 90.0951C122.867 95.0995 145.683 88.833 147.661 69.4408C149.72 51.4057 125.062 41.3541 117.181 59.3042L119.476 59.0041C93.9159 20.9974 49.4548 22.4388 49.7471 74.6913C49.6524 76.3055 52.1638 76.3001 52.2577 74.6903C51.3167 43.8988 71.6839 22.8505 100.475 42.6385C107.064 47.4485 112.395 53.8191 117.308 60.2722C120.306 63.6342 120.958 49.1551 135.309 52.9475C151.102 59.0695 145.949 81.697 131.832 86.6644C114.39 95.5804 95.4992 78.2934 78.3834 87.0287C78.1079 87.2028 77.9107 87.4771 77.8335 87.7939C77.7562 88.1106 77.8049 88.445 77.9693 88.7265C78.1337 89.0081 78.4009 89.2147 78.7147 89.3029C79.0284 89.391 79.3641 89.3539 79.6509 89.1992V89.1992Z" fill="#2F2E41"/>
<path d="M102.954 189.271C79.1773 189.251 56.2815 180.264 38.8333 164.102C21.3851 147.941 10.6669 125.793 8.81618 102.075C6.96547 78.3571 14.1183 54.8129 28.8482 36.1378C43.5781 17.4628 64.8024 5.0294 88.2883 1.31741C111.774 -2.39458 135.795 2.88762 155.561 16.1105C175.327 29.3335 189.385 49.5253 194.932 72.659C200.478 95.7927 197.105 120.168 185.485 140.924C173.865 161.68 154.853 177.29 132.24 184.642C122.783 187.72 112.899 189.282 102.954 189.271ZM102.954 5.02489C85.2371 5.02238 67.917 10.2769 53.1846 20.1238C38.4521 29.9708 26.9692 43.9679 20.1879 60.3449C13.4066 76.722 11.6317 94.7433 15.0875 112.13C18.5434 129.516 27.0748 145.487 39.6028 158.021C52.1308 170.556 68.0926 179.092 85.4696 182.55C102.847 186.008 120.858 184.232 137.226 177.447C153.594 170.662 167.584 159.173 177.426 144.432C187.267 129.692 192.519 112.362 192.516 94.6354C192.489 70.8775 183.045 48.1003 166.255 31.3009C149.464 14.5015 126.699 5.05175 102.954 5.02489Z" fill="#CCCCCC"/>
<path d="M639.489 283.906C639.489 303.353 633.34 322.302 621.923 338.039C610.506 353.777 594.405 365.498 575.925 371.524C575.373 371.699 574.82 371.875 574.259 372.043C571.865 372.78 569.438 373.408 566.969 373.944C562.5 374.914 557.964 375.544 553.401 375.828C551.417 375.962 549.422 376.029 547.416 376.029C537.05 376.04 526.757 374.295 516.973 370.87C516.689 370.77 516.404 370.669 516.128 370.569C500.275 364.84 486.298 354.868 475.72 341.74C465.141 328.611 458.367 312.829 456.136 296.113C453.904 279.398 456.301 262.39 463.065 246.943C469.828 231.497 480.7 218.204 494.494 208.513C508.288 198.823 524.476 193.106 541.293 191.987C558.111 190.867 574.913 194.387 589.869 202.164C604.825 209.94 617.361 221.675 626.11 236.089C634.86 250.502 639.487 267.042 639.489 283.906Z" fill="white"/>
<path d="M545.21 344.941C569.951 344.941 590.007 324.874 590.007 300.12C590.007 275.366 569.951 255.299 545.21 255.299C520.469 255.299 500.413 275.366 500.413 300.12C500.413 324.874 520.469 344.941 545.21 344.941Z" fill="#00B0FF"/>
<path d="M547.825 324.27L547.872 322.595C544.757 322.508 542.012 322.313 539.949 320.805C539.364 320.353 538.883 319.78 538.539 319.126C538.195 318.471 537.996 317.75 537.955 317.012C537.919 316.561 537.987 316.108 538.155 315.687C538.322 315.267 538.584 314.891 538.92 314.588C540.29 313.431 542.494 313.805 544.1 314.542L545.485 315.178L542.829 295.756L541.17 295.983L543.43 312.504C541.247 311.862 539.225 312.139 537.84 313.309C537.308 313.773 536.891 314.355 536.621 315.007C536.35 315.66 536.235 316.366 536.283 317.071C536.331 318.063 536.597 319.032 537.059 319.911C537.522 320.789 538.171 321.556 538.961 322.157C541.612 324.096 545.057 324.192 547.825 324.27Z" fill="#2F2E41"/>
<path d="M532.968 297.408H523.952V299.083H532.968V297.408Z" fill="#2F2E41"/>
<path d="M561.427 297.408H552.411V299.083H561.427V297.408Z" fill="#2F2E41"/>
<path d="M557.937 362.78C558.056 362.23 558.118 361.669 558.122 361.105C558.118 358.996 557.279 356.975 555.789 355.483C554.298 353.992 552.278 353.153 550.17 353.149H538.451C536.343 353.151 534.322 353.99 532.831 355.482C531.34 356.973 530.501 358.996 530.5 361.105C530.499 361.672 530.561 362.236 530.683 362.789C526.26 364.183 522.078 366.254 518.287 368.927C517.551 369.438 516.823 369.991 516.128 370.569C516.404 370.669 516.689 370.77 516.973 370.87C526.757 374.295 537.05 376.04 547.416 376.029C549.425 376.029 551.42 375.962 553.401 375.828C557.964 375.544 562.5 374.914 566.969 373.944C569.438 373.408 571.865 372.78 574.259 372.043C569.523 367.851 563.964 364.696 557.937 362.78Z" fill="#2F2E41"/>
<path d="M556.431 374.765C555.344 374.845 554.299 375.212 553.401 375.828C557.964 375.544 562.5 374.914 566.969 373.944L556.431 374.765Z" fill="#2F2E41"/>
<path d="M585.838 289.473L508.016 260.988C507.603 260.837 507.224 260.606 506.901 260.308C506.577 260.01 506.315 259.652 506.13 259.253C505.945 258.854 505.84 258.422 505.822 257.982C505.803 257.543 505.871 257.104 506.022 256.691L506.286 255.446C512.363 238.823 532.508 228.362 549.121 234.443L573.069 243.208C589.682 249.289 596.903 268.972 590.825 285.595L590.133 287.478C589.982 287.891 589.751 288.27 589.453 288.594C589.156 288.918 588.797 289.18 588.398 289.365C588 289.55 587.568 289.655 587.129 289.674C586.69 289.692 586.251 289.624 585.838 289.473Z" fill="#2F2E41"/>
<path d="M590.03 291.053C481.562 295.058 472.084 281.422 505.133 259.979L512.145 247.071L592.499 276.383L590.03 291.053Z" fill="#2F2E41"/>
<path d="M568.761 241.164C569.36 239.171 566.795 236.637 563.032 235.505C559.269 234.374 555.733 235.072 555.134 237.065C554.536 239.059 557.101 241.592 560.864 242.724C564.627 243.855 568.163 243.157 568.761 241.164Z" fill="#2F2E41"/>
<path d="M547.416 378.542C536.767 378.553 526.194 376.761 516.143 373.242L515.269 372.93C494.216 365.318 476.544 350.481 465.396 331.058C454.247 311.636 450.345 288.887 454.384 266.856C458.422 244.826 470.139 224.943 487.45 210.743C504.762 196.543 526.546 188.947 548.928 189.305C571.311 189.663 592.841 197.953 609.69 212.699C626.539 227.446 637.614 247.694 640.946 269.842C644.278 291.99 639.651 314.603 627.888 333.659C616.124 352.715 597.987 366.978 576.701 373.913C576.107 374.102 575.547 374.28 574.978 374.45C572.6 375.182 570.078 375.84 567.501 376.399C562.908 377.395 558.246 378.043 553.555 378.336C551.54 378.472 549.469 378.542 547.416 378.542ZM547.416 194.296C526.341 194.299 505.941 201.737 489.805 215.302C473.67 228.867 462.831 247.69 459.196 268.461C455.561 289.232 459.363 310.62 469.932 328.864C480.501 347.107 497.16 361.038 516.981 368.206L517.81 368.501C527.325 371.833 537.335 373.529 547.416 373.517C549.357 373.517 551.313 373.451 553.231 373.321C557.673 373.044 562.088 372.431 566.438 371.488C568.875 370.959 571.259 370.338 573.521 369.642C574.081 369.474 574.613 369.305 575.145 369.136C595.418 362.529 612.671 348.903 623.802 330.708C634.933 312.513 639.213 290.942 635.871 269.873C632.53 248.804 621.786 229.618 605.572 215.765C589.358 201.911 568.737 194.299 547.416 194.296Z" fill="#CCCCCC"/>
<path d="M2.51107 477.365C2.49502 489.49 4.87876 501.498 9.52476 512.697C14.1708 523.896 20.9871 534.063 29.5804 542.613C30.3005 543.325 31.037 544.036 31.7817 544.732C36.269 548.926 41.1651 552.66 46.3966 555.878C47.4007 556.498 48.4053 557.093 49.4349 557.671C54.7255 560.654 60.2996 563.103 66.0749 564.982C67.0709 565.308 68.0837 565.618 69.0964 565.903C87.4549 571.171 106.993 570.621 125.027 564.329C125.378 564.203 125.73 564.077 126.073 563.952C141.904 558.189 155.851 548.192 166.397 535.049C176.942 521.906 183.683 506.12 185.884 489.41C188.085 472.7 185.662 455.705 178.879 440.277C172.097 424.849 161.214 411.578 147.416 401.909C133.618 392.24 117.434 386.544 100.624 385.439C83.8149 384.335 67.0249 387.866 52.082 395.647C37.139 403.428 24.6157 415.162 15.8754 429.57C7.13502 443.979 2.51252 460.51 2.51107 477.365Z" fill="white"/>
<path d="M75.1401 522.518C75.1846 529.655 72.5555 536.55 67.7709 541.844C63.0366 547.042 55.9887 550.489 48.8764 549.063C42.3274 547.75 37.0056 542.023 37.6695 535.094C37.7796 533.594 38.2155 532.135 38.9469 530.82C39.6782 529.505 40.6873 528.366 41.9038 527.481C43.1204 526.597 44.5151 525.988 45.9908 525.698C47.4665 525.408 48.9876 525.444 50.4482 525.802C56.6695 527.418 59.1484 536.389 53.9641 540.6C52.7202 541.61 50.933 539.843 52.1885 538.823C55.6157 536.04 54.5569 529.95 50.4204 528.423C45.6044 526.644 40.5018 530.469 40.1554 535.395C39.7448 541.236 44.2169 545.634 49.7011 546.67C55.6338 547.79 61.516 544.752 65.536 540.559C70.1433 535.689 72.6856 529.223 72.629 522.518C72.6403 522.192 72.7775 521.884 73.0117 521.657C73.246 521.431 73.5589 521.304 73.8845 521.304C74.2102 521.304 74.5231 521.431 74.7574 521.657C74.9916 521.884 75.1288 522.192 75.1401 522.518L75.1401 522.518Z" fill="#2F2E41"/>
<path d="M99.6599 538.49C124.401 538.49 144.457 518.423 144.457 493.668C144.457 468.914 124.401 448.847 99.6599 448.847C74.9192 448.847 54.8629 468.914 54.8629 493.668C54.8629 518.423 74.9192 538.49 99.6599 538.49Z" fill="#00B0FF"/>
<path d="M97.3679 512.793L97.3214 511.118C100.436 511.031 103.181 510.836 105.245 509.328C105.829 508.876 106.31 508.303 106.654 507.649C106.998 506.995 107.197 506.274 107.238 505.535C107.274 505.084 107.206 504.631 107.038 504.211C106.871 503.79 106.609 503.414 106.273 503.111C104.903 501.954 102.7 502.329 101.093 503.066L99.7082 503.701L102.364 484.28L104.023 484.507L101.764 501.027C103.946 500.385 105.968 500.662 107.353 501.832C107.885 502.297 108.303 502.878 108.573 503.531C108.843 504.183 108.958 504.89 108.911 505.594C108.862 506.586 108.597 507.555 108.134 508.434C107.671 509.313 107.022 510.079 106.232 510.681C103.581 512.619 100.136 512.715 97.3679 512.793Z" fill="#2F2E41"/>
<path d="M121.241 485.932H112.225V487.606H121.241V485.932Z" fill="#2F2E41"/>
<path d="M92.7823 485.932H83.7662V487.606H92.7823V485.932Z" fill="#2F2E41"/>
<path d="M69.0964 565.903C87.4549 571.171 106.993 570.621 125.027 564.329C125.378 564.203 125.73 564.077 126.073 563.952C121.824 560.672 117.017 558.187 111.885 556.615C112.248 555.328 112.243 553.964 111.869 552.679C111.361 551.051 110.341 549.63 108.961 548.628C107.581 547.626 105.915 547.097 104.21 547.118H93.295C91.5931 547.095 89.9293 547.624 88.552 548.624C87.1747 549.625 86.1578 551.044 85.6531 552.671C85.2791 553.958 85.2733 555.325 85.6364 556.615C81.1159 558 76.844 560.095 72.9804 562.821C72.2018 563.366 71.4486 563.935 70.7207 564.53C70.1681 564.974 69.6241 565.434 69.0964 565.903Z" fill="#2F2E41"/>
<path d="M134.753 488.913C134.753 496.468 138.47 502.732 143.299 503.821C143.791 503.931 144.294 503.987 144.798 503.988C150.33 503.988 154.842 497.23 154.842 488.913C154.842 484.09 153.327 479.793 150.975 477.038C150.158 476.049 149.154 475.232 148.02 474.634C147.025 474.115 145.92 473.842 144.798 473.839C143.256 473.858 141.759 474.362 140.52 475.279C137.114 477.691 134.753 482.892 134.753 488.913Z" fill="#3F3D56"/>
<path d="M45.1913 488.913C45.1913 495.412 47.9366 500.956 51.787 503.075C52.8409 503.666 54.0274 503.98 55.2356 503.988C55.5042 503.988 55.7726 503.971 56.0392 503.938C61.195 503.326 65.2799 496.828 65.2799 488.913C65.2799 482.574 62.6597 477.138 58.9601 474.919C57.8412 474.224 56.5527 473.85 55.2356 473.839C54.1132 473.842 53.008 474.115 52.013 474.634C50.876 475.235 49.8689 476.055 49.0499 477.046C46.7059 479.802 45.1913 484.098 45.1913 488.913Z" fill="#3F3D56"/>
<path d="M52.4134 501.63C52.6127 501.63 52.8091 501.582 52.9864 501.491C53.1637 501.4 53.3168 501.268 53.433 501.106C53.5493 500.944 53.6253 500.757 53.6549 500.56C53.6845 500.362 53.6668 500.161 53.6032 499.972C51.2036 492.832 50.4818 485.235 51.4938 477.771C52.5058 470.307 55.2244 463.177 59.4383 456.934C63.6523 450.692 69.248 445.507 75.7906 441.78C82.3333 438.054 89.6467 435.887 97.1624 435.448C104.678 435.009 112.194 436.311 119.125 439.25C126.056 442.19 132.217 446.69 137.128 452.399C142.039 458.109 145.568 464.874 147.44 472.17C149.313 479.466 149.479 487.095 147.926 494.466C147.892 494.627 147.89 494.794 147.92 494.956C147.95 495.118 148.012 495.273 148.102 495.411C148.192 495.549 148.309 495.668 148.445 495.761C148.581 495.855 148.734 495.92 148.895 495.954C149.056 495.988 149.223 495.99 149.385 495.96C149.547 495.93 149.701 495.868 149.84 495.778C149.978 495.687 150.097 495.571 150.19 495.435C150.283 495.299 150.349 495.146 150.383 494.984C152.017 487.235 151.843 479.213 149.875 471.542C147.907 463.871 144.197 456.758 139.034 450.754C133.871 444.751 127.394 440.02 120.106 436.929C112.818 433.838 104.916 432.47 97.0144 432.931C89.1124 433.393 81.4231 435.671 74.5443 439.59C67.6656 443.508 61.7826 448.961 57.3527 455.525C52.9228 462.088 50.0653 469.585 49.0023 477.433C47.9393 485.281 48.6995 493.269 51.2238 500.775C51.3078 501.024 51.4677 501.241 51.6811 501.394C51.8945 501.547 52.1506 501.63 52.4134 501.63Z" fill="#3F3D56"/>
<path d="M122.164 464.628C123.937 467.051 123.063 470.316 121.194 472.404C118.762 475.122 114.884 475.294 111.516 474.789C107.738 474.223 103.73 472.452 99.9044 473.646C96.6439 474.663 94.318 477.622 90.9306 478.365C87.9265 479.024 84.3341 478.152 83.281 474.948C82.7749 473.409 85.199 472.749 85.7024 474.28C86.3837 476.353 89.3256 476.312 91.0103 475.738C93.7113 474.817 95.7929 472.579 98.4477 471.51C101.578 470.25 104.973 470.819 108.16 471.537C111.163 472.214 114.62 473.217 117.612 471.953C119.826 471.018 121.588 468.071 119.995 465.896C119.039 464.59 121.217 463.336 122.164 464.628Z" fill="#2F2E41"/>
<path d="M94.5841 572C85.7267 572.007 76.9123 570.767 68.4003 568.317C67.4001 568.036 66.3491 567.716 65.2934 567.37C59.3625 565.438 53.6377 562.923 48.203 559.86C47.1837 559.288 46.1605 558.685 45.0786 558.017C39.7059 554.71 34.6771 550.875 30.067 546.567C29.3066 545.857 28.5529 545.129 27.816 544.401C13.3181 529.938 3.90205 511.159 0.982423 490.884C-1.9372 470.61 1.79724 449.935 11.6247 431.966C21.4522 413.996 36.8421 399.702 55.4824 391.232C74.1226 382.761 95.0067 380.571 114.997 384.991C134.988 389.41 153.005 400.201 166.343 415.741C179.681 431.281 187.618 450.732 188.964 471.171C190.309 491.611 184.989 511.935 173.803 529.092C162.618 546.248 146.17 559.309 126.931 566.313C126.586 566.439 126.229 566.567 125.871 566.695C115.816 570.217 105.238 572.011 94.5841 572ZM94.5841 387.754C76.8581 387.755 59.5311 393.018 44.7966 402.878C30.0622 412.737 18.5831 426.75 11.8127 443.141C5.04233 459.531 3.28514 477.564 6.76364 494.955C10.2421 512.345 18.7999 528.312 31.3533 540.834C32.0481 541.52 32.7675 542.215 33.4948 542.895C37.8609 546.974 42.6236 550.607 47.712 553.739C48.737 554.371 49.7016 554.94 50.6633 555.479C55.8106 558.38 61.2328 560.763 66.8505 562.592C67.8445 562.918 68.8266 563.218 69.7755 563.484C87.6379 568.613 106.65 568.08 124.197 561.958L125.211 561.592C144.999 554.385 161.616 540.434 172.145 522.188C182.674 503.941 186.442 482.567 182.786 461.818C179.13 441.068 168.285 422.271 152.155 408.727C136.025 395.182 115.642 387.757 94.5841 387.754Z" fill="#CCCCCC"/>
</g>
<defs>
<clipPath id="clip0_27_3">
<rect width="642" height="572" fill="white"/>
</clipPath>
</defs>
</svg>
